<?xml version="1.0" encoding="utf-8"?>
<!-- Generator: Adobe Illustrator 20.1.0, SVG Export Plug-In . SVG Version: 6.00 Build 0)  -->
<!DOCTYPE svg PUBLIC "-//W3C//DTD SVG 1.1//EN" "http://www.w3.org/Graphics/SVG/1.1/DTD/svg11.dtd">
<svg version="1.1" id="Layer_1" xmlns="http://www.w3.org/2000/svg" xmlns:xlink="http://www.w3.org/1999/xlink" x="0px" y="0px"
	 viewBox="0 0 298.8 293.5" style="enable-background:new 0 0 298.8 293.5;" xml:space="preserve">
<style type="text/css">
	.st0{display:none;fill:#FEFEFE;}
	.st1{fill:#929497;}
	.st2{fill:#BBBCBF;}
	.st3{display:none;fill:#808184;}
	.st4{fill:#A6A8AB;}
	.st5{fill:#2196F3;}
</style>
<g>
	<path class="st0" d="M16.8,133.3c0-41,0-81.9-0.1-122.9c0-2.5,0.5-2.9,2.8-2.9c50.3,0.1,100.5,0.1,150.8,0.1
		c0.1,1.7-1.3,1.9-2.3,2.3c-26.2,8.9-52.4,17.8-78.9,25.5c-0.3,0.1-0.6-0.1-0.8,0.1c13.5-4,27-7.8,40.5-11.7
		c11.6-3.4,23.1-7,34.4-11.2c6.5-2.4,13-2.7,19.7-1.1c18.2,4.2,36,10,48.8,14.6c-14.1-4.5-32.7-12-52.2-16.4
		c-1.1-0.3-2.8-0.1-2.8-2.1c147,0,294.1,0,441.1-0.1c3,0,3.9,0.4,3.9,3.9c-0.1,65-0.1,130.1-0.1,195.1c-6,0.9-12,0.5-17.9,0.3
		c-13.6-0.4-27.1-0.3-40.7,0c-11.1,0.2-22.2,0.5-33.2-0.4c-10.5-0.8-21.1,0.2-31.7-0.4c-17.1-0.9-34.2-0.1-51.2-0.9
		c-16.1-0.8-32.1,0-48.1-0.7c-35.1-1.5-70.2-0.4-105.3-0.8c-0.8,0-1.6,0-2.3-0.1c-2.6-0.1-3.9-1.3-3.2-4.2c0.2-0.7,0.2-1.3,0.4-2
		c1.5-6.3-0.5-11.2-5.4-15.1c-9.4-7.4-19.6-13.5-29.8-19.8c-11.3-7-23.2-13.1-33-17.8c6.9,2.9,15,8.6,23.4,13.8
		c12.3,7.6,24.2,15.6,36,24c1.8,1.3,4.7,2.5,4.3,4.8c-0.4,2.4-3.5,2.3-5.6,2.9c-23,5.8-44.1,15.9-63.8,29.4
		c3.2-2.3,6.6-4.2,10.1-6.1c3.5-1.9,7-3.7,10.7-5.2c13.8-5.7,27.3-12.4,41.9-16c0.6-0.2,1.3-0.3,1.9-0.5c8.1-1.9,8.7-1.4,7.5,7.1
		c-0.8,5.5-0.1,6.4,5.1,6.4c23.1,0,46.2-0.5,69.3,0.1c27.3,0.7,54.5,0,81.8,0.9c39.3,1.2,78.5,0.4,117.8,0.5
		c12.6,0,25.3-0.5,37.9-0.2c7.8,0.2,15.6-0.3,23.4,0.7c0,25.2-0.1,50.4,0.1,75.6c0,2.8-0.5,3.4-3.2,3.4
		c-171.8-0.1-343.6-0.1-515.4-0.1c0.1-2.4,2.1-3.5,3.5-4.5c16.6-11.6,33.8-22.1,52.4-29.7c-7.1,2.7-14.2,5.8-21.1,9
		c-10.4,4.8-20.7,9.8-30.1,16.5c-0.4,0.3-0.9,0.6-1.3,0.9c-6.2,4.6-6.3,4.6-12.6-0.3c-24.2-18.8-47.3-39.1-70.5-59.3
		c-1.1-0.9-2-2.1-2.4-2.5c21.7,21.9,44.7,43.4,69.7,62.5c2.1,1.6,4.3,3.1,6.4,4.7c0.9,0.6,2.3,0.9,2,2.6c-26.5,0-52.9,0-79.4,0.1
		c-2.6,0-2.9-0.7-2.9-3.2c0.1-44.7,0.1-89.4,0.1-134.1c1.9,0.1,1.7,1.8,2,3c0.9,3,1.7,6,2.5,9c-2.3-7.4-3.2-15-2.4-22.6
		c1.5-14.6,10.6-19.6,23.2-18.9c8.7,0.5,17.3,2.6,25.8,4.7c16.3,4,32.9,6.8,45.3,9.8c-17.8-3.5-39.3-9.4-60.9-14.8
		c-5.2-1.3-10.5-2.1-15.9-1.9c-8.5,0.3-14.3,4.6-17.3,12.8C18.6,131.3,18.8,133.2,16.8,133.3z"/>
	<path class="st1" d="M10.4,133.3c0.7-2,1.2-4,2.1-5.9c3.4-7.2,9.1-10.8,16.6-11.4c11.7-0.9,22.6,3.6,33.7,6.2
		c16.2,3.7,32.2,7.9,48.3,11.9c1,0.2,1.9,0.7,2.7,1.7c-5.3-1-10.6-2.2-15.9-3.1c-18.8-3.2-37.2-8.1-55.9-11.7
		c-4.9-0.9-10-1.4-15-0.1c-8.2,2.1-12.5,7.4-13.5,16.7c-1,9.2,0.4,18.3,3.3,27.1c-2-1-2-1-4-7.2c-0.9-2.9-1.7-5.8-2.6-8.7
		C10.4,143.7,10.4,138.5,10.4,133.3z"/>
	<path class="st2" d="M170.2,7.6c8.5,2.5,17.2,4.6,25.7,7.3c12.1,3.9,23.9,8.5,35.9,13.1c-3.5,0.3-6.5-1.3-9.7-2.2
		c-15.8-4.8-31.4-10.1-47.5-13.5c-5.6-1.2-11.1-0.9-16.5,1.1c-24.4,9-49.5,15.7-74.5,22.5c-1.2,0.3-2.2,0.6-4.1,0
		c8.6-2.8,16.7-5.4,24.8-8.1c19-6.3,38-12.5,57-18.9c0.9-0.3,2.1-0.2,2.7-1.3C166.1,7.6,168.2,7.6,170.2,7.6z"/>
	<path class="st3" d="M348.5,147.8c6.9,1.3,13.6,3,17.9,9.3c7.5,11.2,3.5,24.7-8.7,29.4c-4.5,1.7-9.1,2.7-14,2.6
		c-11.6,0-23.2,0-34.8-0.1c-1.1,0-2.9,1-3-1.3c-0.1-1.9,1.5-1.7,2.8-2.1c6.1-1.6,7.3-3.2,7.3-9.9c0-17.5,0-35.1,0-52.6
		c0-5.9-1.6-7.7-7.3-8.1c-1.4-0.1-2.8-0.1-2.8-2c0-2.1,1.7-1.3,2.7-1.3c10.7-0.1,21.5-0.4,32.2,0.1c6.7,0.3,13.7,1.5,18.3,7.6
		c6.7,8.9,4.9,21.3-7.4,26.5C350.6,146.7,349.4,146.7,348.5,147.8z"/>
	<path class="st3" d="M519.6,166.3c0,5.1-0.1,9.7,0,14.3c0.1,3.2,1.7,5,4.8,5.3c1.3,0.1,2.4,0.1,2.2,1.9c-0.2,1.7-1.4,1.4-2.3,1.4
		c-2.7-0.1-5.4,0.1-8.1-0.6c-3.8-1-7.7,1.3-11.6,0.6c-1-0.2-2.6,0.8-2.9-1c-0.3-1.8,1.1-2.1,2.5-2.3c3-0.6,4.5-2.3,4.5-5.9
		c-0.1-20.4-0.1-40.8,0-61.2c0-3.6-1.5-5.4-4.5-5.9c-1.5-0.2-2.9-0.9-2.9-2.1c0-1.3,1.8-1.9,3-2c3.9-0.3,7.6-1.3,11.3-2.4
		c2.4-0.7,3.4,0.2,3.4,3.1c-0.1,16-0.1,32-0.1,48.1c0,1.3,0,2.7,0,4.9c5.8-5.6,10.2-11.3,14.7-17.1c1.3-1.7,0.4-3-1.3-3.7
		c-0.9-0.3-2-0.2-3-0.8c-0.6-0.4-1-0.8-0.9-1.5c0.1-0.9,0.7-1,1.4-1c5.5,0,11,0,16.4,0c0.6,0,1.4-0.1,1.6,0.8
		c0.2,0.9-0.1,1.9-0.8,2.1c-6.2,0.9-9,6.2-12.8,10.3c-6.9,7.4-7,7.3-0.1,14.5c5,5.2,10,10.4,14.9,15.7c1.6,1.7,3.3,3.1,5.2,4.1
		c0.8,0.5,1.8,0.4,1.5,1.8c-0.2,1.1-0.9,1.6-2,1.6c-3.9,0-8.1,0.9-11.7-0.2c-3.9-1.2-6.4-5.4-9-8.7c-3.3-4.4-7.7-7.7-10.7-12.4
		C521.8,167.2,520.8,167,519.6,166.3z"/>
	<path class="st4" d="M58.1,71.8c-3.8,3.8-7.4,5.7-12,7.6c14.1,3.5,27.2,6.8,40.4,10c16.7,4,33.4,8.2,50.1,11.9
		c5.7,1.3,11.4-1.5,16.9-2.8c18.2-4.5,35.8-11.1,53.9-16.2c6.8-1.9,13.5-4.1,21.1-5.1c-3,2.8-7.8,1.4-8.8,6
		c-0.7,3.4-1.7,6.7-3.4,10.6c-1.3-4.6-0.6-8.1,1.7-12c-4.9,1.5-9.3,2.7-13.6,4.2c-20.9,7.2-42.2,13.5-63.7,18.5
		c-1.6,0.4-3.6,0.7-5,0c-3.4-1.6-4,0.4-4.7,3c-1.6,6.1-3.7,12.2-1.4,19c-5.1-3.4-5-5.8,0.4-23c-23.7-5.9-47.3-11.8-71-17.7
		c-3.4-0.8-6.7-1.8-10.2-2.5c-6-1.1-8.8,0.9-9.4,7.2c-0.3,3.1-0.3,6.3,0,9.4c0.5,5.3,2.5,9,8.2,10.7c16.5,4.8,33.3,8.4,50.1,12.1
		c9.7,2.1,19.5,4,29.2,6.1c3.6,0.8,6.9,0.5,10.3-0.7c23.1-8.2,45.9-17.4,68.8-26.2c5.7-2.2,11.4-4.3,17.1-6.5c1-0.4,1.9-0.7,3.4-0.2
		c-7.7,4.6-15.8,7.6-23.7,10.8c-20.8,8.6-41.7,16.8-62.8,24.6c-8.3,3.1-15.8,1.1-23.5-0.6c-19.6-4.1-39.1-8.6-58.5-13.1
		c-5.1-1.2-10.2-2.9-15.1-5c-2.9-1.2-4.5-3.2-5.2-6.4c-1.1-5.2-1.7-10.4-1.3-15.7c0.5-7.3,6.6-9.8,10.9-13.8
		C50.1,73.2,53.3,71.9,58.1,71.8z"/>
	<path class="st3" d="M407.4,190.9c-15.6-0.5-26.5-11.3-26.3-27.2c0.3-16.1,10.7-26.9,27-26.9c15,0,25.4,10.9,25.8,25.9
		C434.5,178.3,422.4,190.9,407.4,190.9z"/>
	<path class="st3" d="M441.3,163.8c-0.9-15.4,11.7-27.2,26.5-27.1c13.8,0.1,26.1,11.2,25.9,26.8c-0.2,15.4-11.4,27.3-26.7,27.4
		C453.7,190.9,440.3,180,441.3,163.8z"/>
	<path class="st3" d="M561.9,181.8c0-2.1,0-4.1,0-6.2c0-1.2,0.1-2.4,1.3-2.6c1.3-0.3,1.5,1,1.9,2.1c2.1,5.6,4.8,10.7,11.1,12.3
		c3.4,0.8,8.2-1.3,10-4.7c1.9-3.6,0.1-6.1-2.2-8.6c-4.5-4.6-10-7.5-15.1-11.2c-5.5-4.1-8.4-10.2-4.7-18.4c2.7-6,9.5-9.1,15.8-7.4
		c2.8,0.7,5.6,2,8.6,0.5c1.5-0.7,2.3,0.3,2.3,2.1c-0.1,3,0,6,0,9c0,1.3,0.3,3-1.5,3.3c-1.5,0.2-1.7-1.5-2.1-2.5
		c-1.7-4.3-3.9-7.8-8.6-9c-3.6-0.9-6.7,0.3-8.2,3.9c-1.5,3.4,0.2,5.8,2.7,7.5c3.8,2.7,7.9,5.1,12,7.2c5.7,2.9,9.5,7.5,9.6,14.4
		c0.2,13.8-10,19.2-21.1,16.9c-1.7-0.4-3.3-1.3-5-1.8c-0.7-0.2-1.3-0.8-2.4-0.3c-4.2,2.2-4.3,2-4.3-2.8
		C561.9,184.3,561.9,183,561.9,181.8z"/>
	<path class="st2" d="M144.5,91c-5.7,0.5-11.2-1.2-16.7-2.3c-17.3-3.3-34.4-6.9-51.7-10.4c-0.5-0.1-1.1,0-1.6-0.2
		C62.1,75.3,59.7,71.2,62,57.4c0.6-3.7,1.4-7.2,3.1-10.4c3.6-7,10.5-10.1,18.1-8.9C106,41.6,128,48.3,150,55.4c3.1,1,6.1,2.1,9.2,3
		c1.5,0.4,1.7,1,0.7,2.2c-0.6,0.7-1,1.6-1.5,2.4c-6.1,7.9-6.3,10.4-1.2,18.8c-5.3-1.9-7.4-7.9-5.2-13.8c0.9-2.4,3.8-4.6,2.4-7.2
		c-1.3-2.4-4.6-2.1-7-2.9c-20.6-6.7-41.3-13.1-62.7-16.4c-12.5-1.9-18.2,3.2-20.2,18.9c-0.2,1.7-0.1,3.6,0,5.3c0.2,5,1.5,6.8,6.1,8
		c21.9,5.6,44,10.5,66.1,15.4C139.3,89.6,141.9,90.3,144.5,91z"/>
	<path class="st1" d="M86.5,144.1c-3-2.2-6.8-2-10.3-5.2c11.6,1.8,22.1,4.7,32.7,8c0.5-3.4,1.5-6.4,4.4-8.5
		c-2.8,6-2.3,12.1-1.2,18.3c0.6,3.3-2.3,2.2-3.4,1.9c-3-0.7-5.8-2.2-8.7-3.1c-12.2-3.4-24.1-7.8-36-11.9c-0.5-0.2-0.8-0.6-1.8-1.4
		c6,0.4,11.1,2.4,16.2,3.7c9.5,2.4,19,4.8,28.2,8.2c0.9,0.3,2,1,2.3-0.1c0.4-1.3-0.9-1.6-1.9-1.9c-9.2-2.4-18.4-4.8-27.6-7.4
		c-2.6-0.7-5.4-1.5-7.9-3.9C76.8,142,81.6,143.1,86.5,144.1z"/>
	<g>
		<path class="st5" d="M277.1,191.9c-9.8,2.1-19.2,5.3-28.4,9.1c-15.2,6.3-30.5,12.4-44.7,21.2c21.7-17.8,46.6-28.4,73.6-34.9
			c-11-8.5-22.4-16-33.9-23.3c-11.5-7.3-22.7-15.1-34.9-21.3c6.3,1.2,12,4.1,17.7,7.1c17.7,9.2,34.7,19.5,50.7,31.4
			c6.2,4.6,7.7,9.1,5.4,17.9C282.3,200.1,278.9,191.5,277.1,191.9z"/>
		<path class="st5" d="M92.7,286.2c-29.7-21.1-56.2-46-81.5-72.5c3.6,0.3,5.3,3.6,7.7,5.6c8.2,6.6,15.9,13.9,24,20.8
			c14,12,28,24.1,42.5,35.4c2.8,2.2,5.8,5.6,8.8,5.7c2.6,0.1,5.4-3.6,8.1-5.6c10.9-8,43.1-23,52.6-24.4
			c-10.3,4.5-20.3,9.7-29.9,15.6c-9.8,5.9-20.1,11.1-28.4,19.4C95.3,286.2,94,286.2,92.7,286.2z"/>
		<path class="st5" d="M28.5,199.6c5.5,2.4,10.4,6,15.3,9.4c18.5,13,36.1,27.4,54.7,40.2c6.1,4.2,8,3.8,16.1-2.8
			c8.8-7.2,17.5-14.6,27.5-19.8c8.4-4.3,17.3-7.1,26.7-6.9c9.6,0.2,18.7,2.6,27.7,8.1c-4.8-0.3-8.5-2.5-12.5-3.5
			c-15.1-3.9-28.9-0.2-42.1,7.4c-10.8,6.3-20.1,14.9-30,22.5c-5,3.8-8.9,3.5-16.4-1.6c-13.5-9.1-26.2-19.2-38.6-29.8
			C47.6,214.9,38.2,207.1,28.5,199.6z"/>
		<path class="st5" d="M154.2,233.3c-8.4,2.7-15.9,7.5-23.3,12.1c-12,7.5-23.9,15.3-35.7,23.1c-3.1,2-5.1,1.6-7.9-1.1
			c-5.9-5.7-12.5-10.6-18.7-15.8c-8.1-6.7-16.2-13.4-24.2-20.3c-10.1-8.6-20-17.3-29.3-26.8c-0.7-0.7-1.3-1.5-1.5-2.7
			c4.1,3.3,8.1,6.5,12.2,9.8c9.6,7.6,19.3,15.2,28.9,22.9c9.4,7.5,18.7,15.2,28,22.8c2.7,2.2,5.5,4.4,8,6.8c1.2,1.1,1.5,0.3,2.4-0.3
			c13.1-9.6,27.6-16.5,41.8-23.9c4.7-2.4,9.6-4.6,14.7-6.2C151.1,233.2,152.6,233.3,154.2,233.3z"/>
		<path class="st5" d="M166.3,202.6c-6.8-4.2-13.3-8.6-20.1-12.6c-10.5-6.3-20-14.4-30.8-20.1c-6.3-3.3-13-5.6-20-5.2
			c-6,0.3-11.9,2.1-17.6,4.4c-12.6,5.1-24.7,11.3-36.7,17.6c-2.7,1.4-4.9,4.2-9.3,4.1c5.8-3.9,10.9-7.5,16.1-10.8
			c10.5-6.6,21.2-12.7,32.9-16.6c7-2.3,14.3-3.6,21.5-4.5c4.9-0.6,9.1,1.8,13.1,4.5c16.2,11.2,32,23,47.2,35.6
			C164,200.1,165.1,201.4,166.3,202.6z"/>
		<path class="st5" d="M279.1,209.9c-6.4,3-12.8,6-19.2,9c-17.1,8-34.4,15.7-50.2,26.4c-3.3,2.2-6.7,4.4-10.5,5.2
			c-9,2.1-11.1,0.3-10-8.6c0.6-4.8,3.3-9,6-13.8c-0.6,5.8-2.4,10.6-2.2,15.7c0.2,3.9,1.4,4.9,4.8,2.9c10.4-5.9,20.6-12.3,31.1-18
			c15.1-8.1,31.1-14,47.4-19c0.8-0.2,1.6-0.5,2.4-0.8C278.8,209.3,279,209.6,279.1,209.9z"/>
		<path class="st5" d="M94,261.2c-25.6-16.9-48.8-37-71.9-57.6C29.5,203.4,88.3,252.4,94,261.2z"/>
		<path class="st5" d="M195.2,131.5c-19.2,1.1-59.8,16.8-66.4,25.9c-0.2-2.6,0.8-4.1,2.2-5.5c6.4-6.5,14.3-10.3,22.4-13.8
			c12-5.2,24.2-8.9,37.3-8.1C192.7,130.1,192.7,130.1,195.2,131.5z"/>
	</g>
	<path class="st2" d="M99.4,69.9c-2.8,2-5.5-1.2-8.2,0.5c14.5,4.2,29.4,7.1,43.5,12.7c-21.5-4.2-43.2-7.6-64.4-16.1
		c3.1-1.1,5.3,1.3,7.8,0.2c-1.7-1.7-4.3-1.4-6.3-3.9C81.6,64.4,90.5,67.4,99.4,69.9z"/>
	<path class="st4" d="M90,112.2c4.2-2.1,8.2,0.2,12.6-0.4c-3.2-1.6-6.5-1.5-9.3-3.3c6-1.4,26.4,2.3,31.5,5.7
		c-4,1.3-7.9-0.9-12.9-0.4c4.7,1.8,8.3,3.1,12,4.5c-0.1,0.3-0.1,0.5-0.2,0.8c-3.1-0.5-6.1-0.9-9.2-1.4c0,0.1,0,0.3-0.1,0.4
		c3.1,1.1,6.3,2.2,9.4,3.3c-9.1,0.8-17.6-1.4-26-4.3c0-0.4,0-0.7,0-1.1c1.7,0,3.4-0.2,5.1,0c1.8,0.2,3.5,1.2,5.8,0.4
		C102.3,115,96.2,113.6,90,112.2z"/>
	<path class="st2" d="M251.8,62.2c-30.3,10.2-60.8,19.7-92,26.2C190,78,220.4,68.5,251.8,62.2z"/>
	<path class="st2" d="M249.7,34.5c-27.3,10.1-56,14.1-83.7,22.6C192.7,44.8,221.5,40.9,249.7,34.5z"/>
	<path class="st2" d="M108.1,67.6c-12-0.7-23.2-3.6-35-6.4C78.9,58.9,101.7,63.2,108.1,67.6z"/>
	<path class="st1" d="M42.2,178.9c-8.5-0.8-16.5-2.9-23.5-8.3C27,172.1,35,174.1,42.2,178.9z"/>
	<path class="st2" d="M247.5,38.5c-8.6,4.9-9.4,12.4-7.1,21.2c-4.3-3.3-4.2-12.7-2.6-16.3C239.2,40.3,242.7,38.4,247.5,38.5z"/>
</g>
</svg>
